<svg width="118" height="118" viewBox="0 0 118 118" fill="none" xmlns="http://www.w3.org/2000/svg">
<path d="M35.9302 48.5067C34.3139 46.7434 31.522 46.5964 29.7588 48.2128C27.9955 49.8291 27.8486 52.6209 29.4649 54.3842L51.6527 78.4822C52.5343 79.3638 53.5629 79.9515 54.7384 79.9515C54.7384 79.9515 54.7384 79.9515 54.8853 79.9515C56.0608 79.9515 57.2363 79.5107 57.971 78.6291L114.102 22.6454C115.865 20.8822 115.865 18.0903 114.102 16.474C112.338 14.8577 109.547 14.7107 107.93 16.474L55.0322 69.225L35.9302 48.5067Z" fill="url(#paint0_linear)"/>
<path d="M113.073 54.5305C110.575 54.5305 108.665 56.4407 108.665 58.9387C108.665 86.2693 86.3305 108.604 58.9999 108.604C31.6693 108.604 9.33464 86.2693 9.33464 58.9387C9.33464 31.608 31.6693 9.27336 58.9999 9.27336C61.4979 9.27336 63.4081 7.36316 63.4081 4.8652C63.4081 2.36724 61.4979 0.457031 58.9999 0.457031C26.8203 0.457031 0.518311 26.7591 0.518311 58.9387C0.518311 91.1183 26.8203 117.42 58.9999 117.42C91.1795 117.42 117.482 91.1183 117.482 58.9387C117.482 56.4407 115.571 54.5305 113.073 54.5305Z" fill="url(#paint1_linear)"/>
<defs>
<linearGradient id="paint0_linear" x1="66.5571" y1="95.6649" x2="66.6667" y2="35.9777" gradientUnits="userSpaceOnUse">
<stop stop-color="#9D5EA6"/>
<stop offset="1" stop-color="#ED2377"/>
</linearGradient>
<linearGradient id="paint1_linear" x1="51.8487" y1="145.807" x2="52.1148" y2="37.9816" gradientUnits="userSpaceOnUse">
<stop stop-color="#9D5EA6"/>
<stop offset="1" stop-color="#ED2377"/>
</linearGradient>
</defs>
</svg>
